<?xml version="1.0" encoding="utf-8"?>
<svg version="1.1" id="Layer_1"
xmlns="http://www.w3.org/2000/svg"
xmlns:xlink="http://www.w3.org/1999/xlink"
width="137px" height="138px"
xml:space="preserve">
<filter id="filter9" x="-0.549524" y="-0.549524" width="2.30604" height="2.30667" >
<feComponentTransfer in="SourceGraphic">
	<feFuncR type="linear" slope="0"/>
	<feFuncG type="linear" slope="0"/>
	<feFuncB type="linear" slope="0"/>
</feComponentTransfer>
<feGaussianBlur stdDeviation="0.6 0.6" />
<feOffset dx="2.12135" dy="2.12129"/>
<feComponentTransfer result="1">
	<feFuncR type="linear" Ue="0" intercept="0.317647"/>
	<feFuncG type="linear" Ue="0" intercept="0.113725"/>
	<feFuncB type="linear" Ue="0" intercept="0.360784"/>
	<feFuncA type="linear" xh="0" slope="2"/>
</feComponentTransfer>
<feComposite result="2"  in="SourceGraphic" in2="1" operator="over"/>
<feComponentTransfer in="2">
	<feFuncR type="linear" slope="0"/>
	<feFuncG type="linear" slope="0"/>
	<feFuncB type="linear" slope="0"/>
</feComponentTransfer>
<feGaussianBlur stdDeviation="2 2" />
<feOffset result="3" dx="-3.53558" dy="-3.53549"/>
<feComponentTransfer in="2">
	<feFuncR type="linear" slope="0"/>
	<feFuncG type="linear" slope="0"/>
	<feFuncB type="linear" slope="0"/>
</feComponentTransfer>
<feGaussianBlur stdDeviation="2 2" />
<feOffset result="4" dx="3.53558" dy="3.53549"/>
<feComposite  in="3" in2="4" operator="arithmetic" k2="1" k3="-1"/>
<feComponentTransfer result="5">
	<feFuncR type="linear" Ue="0" intercept="0.847059"/>
	<feFuncG type="linear" Ue="0" intercept="0.309804"/>
	<feFuncB type="linear" Ue="0" intercept="0.956863"/>
	<feFuncA type="linear" xh="0" slope="1"/>
</feComponentTransfer>
<feComposite  in="4" in2="3" operator="arithmetic" k2="1" k3="-1"/>
<feComponentTransfer result="6">
	<feFuncR type="linear" Ue="0" intercept="0.215686"/>
	<feFuncG type="linear" Ue="0" intercept="0.00392157"/>
	<feFuncB type="linear" Ue="0" intercept="0.258824"/>
	<feFuncA type="linear" xh="0" slope="1"/>
</feComponentTransfer>
<feComposite result="7"  in="5" in2="6" operator="arithmetic" k2="1" k3="1"/>
<feComposite result="8"  in="7" in2="2" operator="atop"/>
</filter>
<g style="filter:url(#filter9);">
<g id="PathID_1" transform="matrix(0.529756, -0.334011, 0.334011, 0.529756, -15.95, 54.85)" opacity="1">
<path style="fill:#8F04A8;fill-opacity:1" d="M181 29.7L143.85 29.75Q136.35 29.7 133.2 27.1Q130.35 24.6 130.2 18.4L130 15.05Q130 13.05 128.45 11.65Q126.95 10.2 124.85 10.2L87.9 10.2Q85.6 10.2 84.1 11.65Q82.8 13.3 82.8 15.45L82.45 17.85Q82.4 24.25 78.1 27.1Q74.85 29 68.4 29.7L35.65 29.7Q30.85 29.7 27.1 33.1Q23.7 36.55 23.7 41.65L23.7 54.9Q27.6 51.45 33.75 47.6Q41.85 43.25 50.55 40.75Q58.45 38.8 67.5 38.8L80.05 39.8Q90.45 34.85 102.1 34.85Q114.95 34.85 126.3 40.55Q137.1 46.15 144.3 55.95Q144.6 52.15 147.4 49.55Q150.3 46.85 154.2 46.85Q158.55 46.85 161.5 49.95Q164.4 52.7 164.4 56.95Q164.4 60.1 162.25 63L193.05 63L193.05 41.65Q193.05 36.55 189.6 33.1Q186.05 29.7 181 29.7M196.9 25.8Q203.4 32.6 203.4 41.65L203.4 122.05Q203.4 131.3 196.9 137.65Q190.45 144.25 181 144.25L123.4 144.25Q120.9 148 117.75 151.45Q110.1 159.95 99.55 165.45Q84.6 173.7 67.5 173.7Q39.45 173.7 19.65 153.95L17.35 151.45Q-0.05 132.5 -0.05 106.15Q-0.05 83.8 13.65 65.65L13.65 41.65Q13.65 32.6 20.15 25.8Q26.5 19.35 35.65 19.35L67.9 19.35Q72.45 19 72.45 15.05Q73.05 0 87.9 0L124.85 0Q131.35 0 135.75 3.5Q140.05 7.55 140.05 14.8L140.95 17.7Q141.7 19.35 143.85 19.35L181 19.35Q190.45 19.35 196.9 25.8M114.2 19.35Q115.45 20.65 115.45 22.9L115.45 23.5Q115.45 25.8 114.2 27.1Q112.5 28.55 110.15 28.55L97.6 28.55Q95.4 28.55 93.95 27.1Q92.5 25.8 92.5 23.5L92.5 22.9Q92.5 20.65 93.95 19.35Q95.4 17.85 97.6 17.85L110.15 17.85Q112.5 17.85 114.2 19.35M97.05 45.6Q114.3 53.75 124.6 69.85Q135.25 86.35 135.25 106.15Q135.25 110.05 134.7 113.65Q144.3 102 144.3 87.3Q144.3 69.85 131.95 57.55Q119.5 45.1 102.1 45.1L97.05 45.6M158.1 56.95Q158.1 55.25 157.1 54.25Q155.85 53.05 154.2 53.05Q152.55 53.05 151.55 54.25Q150.6 55.25 150.6 56.95Q150.6 58.45 151.55 59.85Q152.55 60.6 154.2 60.6Q155.85 60.6 157.1 59.85Q158.1 58.45 158.1 56.95M63.85 67.35Q81.15 67.35 93.15 79.35Q105.3 91.25 105.3 108.35Q105.3 125.5 93.15 137.5Q81.15 149.6 63.85 149.6Q46.9 149.6 34.9 137.5Q22.85 125.5 22.85 108.35Q22.85 91.25 34.9 79.35Q46.9 67.35 63.85 67.35M29.35 68.35Q13.75 83.9 13.75 106.15Q13.75 128.5 29.35 144.4Q33.6 148.45 38.3 151.45Q51 159.95 67.5 159.95Q84 159.95 97.05 151.45Q101.7 148.45 105.75 144.4Q121.45 128.5 121.45 106.15Q121.45 83.9 105.75 68.35Q89.85 52.45 67.5 52.45Q45.15 52.45 29.35 68.35M38.3 83.35Q27.9 94.15 27.9 108.75Q27.9 110.95 28.6 115.85Q34.2 106.7 43.5 101.5Q52.8 95.8 63.85 95.8Q74.85 95.8 84.1 101Q93.15 106.15 98.85 114.65L99.3 108.75Q99.3 94.15 88.6 83.35Q78.25 73 63.6 73Q48.7 73 38.3 83.35" />
</g>
<g id="PathID_2" transform="matrix(0.529756, -0.334011, 0.334011, 0.529756, -15.95, 54.85)" opacity="1">
</g>
</g>
</svg>
