<?xml version="1.0" encoding="utf-8"?>
<svg version="1.1" id="Layer_1"
xmlns="http://www.w3.org/2000/svg"
xmlns:xlink="http://www.w3.org/1999/xlink"
width="782px" height="178px"
xml:space="preserve">
<g id="PathID_117" transform="matrix(0.842293, 0, 0, 1.11626, 542.55, 55.85)" opacity="1">
<path style="fill:#738D1D;fill-opacity:1" d="M11.3 -6.05Q13.15 -4.9 16.35 -4.9Q23.85 -4.9 26.95 -14.05Q29.65 -21.95 22.15 -21.95Q18.8 -21.95 16.55 -21.45L11.3 -6.05M12.35 -25.6Q18.35 -26.75 23.85 -26.75Q36.75 -26.75 32.4 -14Q27.65 0 14.7 0Q11.5 0 9.65 -1.2L6.05 9.3L0.5 9.3L12.35 -25.6" />
</g>
<g id="PathID_118" transform="matrix(0.842293, 0, 0, 1.11626, 542.55, 55.85)" opacity="1">
</g>
<g id="PathID_119" transform="matrix(0.842293, 0, 0, 1.11626, 565.95, 55.85)" opacity="1">
<path style="fill:#738D1D;fill-opacity:1" d="M3.65 0L15.95 -36.05L21.5 -36.05L17.35 -23.95Q21.65 -26.7 26.55 -26.7Q35.95 -26.7 32.55 -16.65L26.85 0L21.3 0L27 -16.7Q28.8 -21.95 23.55 -21.95Q19.9 -21.95 15.7 -19L9.2 0L3.65 0" />
</g>
<g id="PathID_120" transform="matrix(0.842293, 0, 0, 1.11626, 565.95, 55.85)" opacity="1">
</g>
<g id="PathID_121" transform="matrix(0.842293, 0, 0, 1.11626, 589.75, 55.85)" opacity="1">
<path style="fill:#738D1D;fill-opacity:1" d="M16.8 -4.65Q24 -4.65 27 -13.45Q29.9 -22.05 22.7 -22.05Q15.5 -22.05 12.6 -13.45Q9.6 -4.65 16.8 -4.65M7 -13.35Q11.55 -26.75 24.3 -26.75Q37.05 -26.75 32.55 -13.35Q28 0 15.2 0Q2.5 0 7 -13.35" />
</g>
<g id="PathID_122" transform="matrix(0.842293, 0, 0, 1.11626, 589.75, 55.85)" opacity="1">
</g>
<g id="PathID_123" transform="matrix(0.842293, 0, 0, 1.11626, 613.4, 55.85)" opacity="1">
<path style="fill:#738D1D;fill-opacity:1" d="M14.15 -30.9L17.95 -30.9L17.5 -26.7L23.6 -26.7L22 -22.05L16.75 -22.05L11.85 -7.75Q10.8 -4.65 13.4 -4.65L16.1 -4.65L14.5 0L10.65 0Q3.65 0 6.2 -7.4L14.15 -30.9" />
</g>
<g id="PathID_124" transform="matrix(0.842293, 0, 0, 1.11626, 613.4, 55.85)" opacity="1">
</g>
<g id="PathID_125" transform="matrix(0.842293, 0, 0, 1.11626, 625.45, 55.85)" opacity="1">
<path style="fill:#738D1D;fill-opacity:1" d="M16.8 -4.65Q24 -4.65 27 -13.45Q29.9 -22.05 22.7 -22.05Q15.5 -22.05 12.6 -13.45Q9.6 -4.65 16.8 -4.65M7 -13.35Q11.55 -26.75 24.3 -26.75Q37.05 -26.75 32.55 -13.35Q28 0 15.2 0Q2.5 0 7 -13.35" />
</g>
<g id="PathID_126" transform="matrix(0.842293, 0, 0, 1.11626, 625.45, 55.85)" opacity="1">
</g>
<g id="PathID_127" transform="matrix(0.842293, 0, 0, 1.11626, 649.1, 55.85)" opacity="1">
<path style="fill:#738D1D;fill-opacity:1" d="M28.2 -21.45Q26.4 -21.95 23.1 -21.95Q15.4 -21.95 12.55 -13.55Q9.6 -4.9 16.85 -4.9Q20.25 -4.9 22.95 -6.05L28.2 -21.45M26.6 -0.5Q23.25 9.3 10.9 9.3Q6.05 9.3 2.45 7.95L3.95 3.4Q7.85 4.65 12.55 4.65Q19.3 4.65 21.05 -0.5L21.3 -1.2Q18.6 0 15.15 0Q2.45 0 7.05 -13.5Q11.55 -26.75 24.9 -26.75Q30.15 -26.75 35.15 -25.6L26.6 -0.5" />
</g>
<g id="PathID_128" transform="matrix(0.842293, 0, 0, 1.11626, 649.1, 55.85)" opacity="1">
</g>
<g id="PathID_129" transform="matrix(0.842293, 0, 0, 1.11626, 672.5, 55.85)" opacity="1">
<path style="fill:#738D1D;fill-opacity:1" d="M3.65 0L12.75 -26.75L16.75 -26.75L16.3 -23.45Q20.3 -26.75 25.8 -26.75L24.15 -21.95Q19.3 -21.95 15.7 -19L9.2 0L3.65 0" />
</g>
<g id="PathID_130" transform="matrix(0.842293, 0, 0, 1.11626, 672.5, 55.85)" opacity="1">
</g>
<g id="PathID_131" transform="matrix(0.842293, 0, 0, 1.11626, 685.1, 55.85)" opacity="1">
<path style="fill:#738D1D;fill-opacity:1" d="M5.35 -8.5Q8.2 -16.95 19.15 -16.95Q23.05 -16.95 25.2 -16.45L25.85 -18.35Q27.1 -22.05 20.65 -22.05Q16.8 -22.05 11.6 -20.85L13.15 -25.4Q18.2 -26.75 22.25 -26.75Q34.25 -26.75 31.3 -18L25.15 0L22.1 0L21.05 -1.8Q17.3 0 12.6 0Q2.45 0 5.35 -8.5M17.55 -12.25Q12.15 -12.25 10.9 -8.6Q9.6 -4.65 14.2 -4.65Q18.75 -4.65 21.8 -6.45L23.65 -11.85Q21.5 -12.25 17.55 -12.25" />
</g>
<g id="PathID_132" transform="matrix(0.842293, 0, 0, 1.11626, 685.1, 55.85)" opacity="1">
</g>
<g id="PathID_133" transform="matrix(0.842293, 0, 0, 1.11626, 707.45, 55.85)" opacity="1">
<path style="fill:#738D1D;fill-opacity:1" d="M11.3 -6.05Q13.15 -4.9 16.35 -4.9Q23.85 -4.9 26.95 -14.05Q29.65 -21.95 22.15 -21.95Q18.8 -21.95 16.55 -21.45L11.3 -6.05M12.35 -25.6Q18.35 -26.75 23.85 -26.75Q36.75 -26.75 32.4 -14Q27.65 0 14.7 0Q11.5 0 9.65 -1.2L6.05 9.3L0.5 9.3L12.35 -25.6" />
</g>
<g id="PathID_134" transform="matrix(0.842293, 0, 0, 1.11626, 707.45, 55.85)" opacity="1">
</g>
<g id="PathID_135" transform="matrix(0.842293, 0, 0, 1.11626, 730.85, 55.85)" opacity="1">
<path style="fill:#738D1D;fill-opacity:1" d="M3.65 0L15.95 -36.05L21.5 -36.05L17.35 -23.95Q21.65 -26.7 26.55 -26.7Q35.95 -26.7 32.55 -16.65L26.85 0L21.3 0L27 -16.7Q28.8 -21.95 23.55 -21.95Q19.9 -21.95 15.7 -19L9.2 0L3.65 0" />
</g>
<g id="PathID_136" transform="matrix(0.842293, 0, 0, 1.11626, 730.85, 55.85)" opacity="1">
</g>
<g id="PathID_137" transform="matrix(0.842293, 0, 0, 1.11626, 754.65, 55.85)" opacity="1">
<path style="fill:#738D1D;fill-opacity:1" d="M9.7 -26.75L15.5 -26.75L15.6 -6.65L29.6 -26.75L35.25 -26.75L14.6 0.75Q9.9 7.65 2.95 9.5L2.3 5.55Q7.4 3.5 10.6 -0.35L9.7 -26.75" />
</g>
<g id="PathID_138" transform="matrix(0.842293, 0, 0, 1.11626, 754.65, 55.85)" opacity="1">
</g>
<g id="PathID_139" transform="matrix(1, 0, 0, 1, 335.9, 3.3)" opacity="1">
<path style="fill:#6C1659;fill-opacity:1" d="M181 29.7L143.85 29.75Q136.35 29.7 133.2 27.1Q130.35 24.6 130.2 18.4L130 15.05Q130 13.05 128.45 11.65Q126.95 10.2 124.85 10.2L87.9 10.2Q85.6 10.2 84.1 11.65Q82.8 13.3 82.8 15.45L82.45 17.85Q82.4 24.25 78.1 27.1Q74.85 29 68.4 29.7L35.65 29.7Q30.85 29.7 27.1 33.1Q23.7 36.55 23.7 41.65L23.7 54.9Q27.6 51.45 33.75 47.6Q41.85 43.25 50.55 40.75Q58.45 38.8 67.5 38.8L80.05 39.8Q90.45 34.85 102.1 34.85Q114.95 34.85 126.3 40.55Q137.1 46.15 144.3 55.95Q144.6 52.15 147.4 49.55Q150.3 46.85 154.2 46.85Q158.55 46.85 161.5 49.95Q164.4 52.7 164.4 56.95Q164.4 60.1 162.25 63L193.05 63L193.05 41.65Q193.05 36.55 189.6 33.1Q186.05 29.7 181 29.7M196.9 25.8Q203.4 32.6 203.4 41.65L203.4 122.05Q203.4 131.3 196.9 137.65Q190.45 144.25 181 144.25L123.4 144.25Q120.9 148 117.75 151.45Q110.1 159.95 99.55 165.45Q84.6 173.7 67.5 173.7Q39.45 173.7 19.65 153.95L17.35 151.45Q-0.05 132.5 -0.05 106.15Q-0.05 83.8 13.65 65.65L13.65 41.65Q13.65 32.6 20.15 25.8Q26.5 19.35 35.65 19.35L67.9 19.35Q72.45 19 72.45 15.05Q73.05 0 87.9 0L124.85 0Q131.35 0 135.75 3.5Q140.05 7.55 140.05 14.8L140.95 17.7Q141.7 19.35 143.85 19.35L181 19.35Q190.45 19.35 196.9 25.8M114.2 19.35Q115.45 20.65 115.45 22.9L115.45 23.5Q115.45 25.8 114.2 27.1Q112.5 28.55 110.15 28.55L97.6 28.55Q95.4 28.55 93.95 27.1Q92.5 25.8 92.5 23.5L92.5 22.9Q92.5 20.65 93.95 19.35Q95.4 17.85 97.6 17.85L110.15 17.85Q112.5 17.85 114.2 19.35M97.05 45.6Q114.3 53.75 124.6 69.85Q135.25 86.35 135.25 106.15Q135.25 110.05 134.7 113.65Q144.3 102 144.3 87.3Q144.3 69.85 131.95 57.55Q119.5 45.1 102.1 45.1L97.05 45.6M158.1 56.95Q158.1 55.25 157.1 54.25Q155.85 53.05 154.2 53.05Q152.55 53.05 151.55 54.25Q150.6 55.25 150.6 56.95Q150.6 58.45 151.55 59.85Q152.55 60.6 154.2 60.6Q155.85 60.6 157.1 59.85Q158.1 58.45 158.1 56.95M63.85 67.35Q81.15 67.35 93.15 79.35Q105.3 91.25 105.3 108.35Q105.3 125.5 93.15 137.5Q81.15 149.6 63.85 149.6Q46.9 149.6 34.9 137.5Q22.85 125.5 22.85 108.35Q22.85 91.25 34.9 79.35Q46.9 67.35 63.85 67.35M29.35 68.35Q13.75 83.9 13.75 106.15Q13.75 128.5 29.35 144.4Q33.6 148.45 38.3 151.45Q51 159.95 67.5 159.95Q84 159.95 97.05 151.45Q101.7 148.45 105.75 144.4Q121.45 128.5 121.45 106.15Q121.45 83.9 105.75 68.35Q89.85 52.45 67.5 52.45Q45.15 52.45 29.35 68.35M98.85 114.65L99.3 108.75Q99.3 94.15 88.6 83.35Q78.25 73 63.6 73Q48.7 73 38.3 83.35Q27.9 94.15 27.9 108.75Q27.9 110.95 28.6 115.85Q32.35 139 63.55 144.9Q94.15 136.4 98.95 115.2L98.85 114.65" />
</g>
<g id="PathID_140" transform="matrix(1, 0, 0, 1, 335.9, 3.3)" opacity="1">
</g>
<g id="PathID_141" transform="matrix(0.651327, 0, -1.93636e-007, 1.10747, 2.5, 59.15)" opacity="1">
<path style="fill:#738D1D;fill-opacity:1" d="M25.8 -36.05L17.1 -10.6Q13.5 0 0.6 0L2.2 -4.65Q9.55 -4.65 11.55 -10.6L20.2 -36.05L25.8 -36.05" />
</g>
<g id="PathID_142" transform="matrix(0.651327, 0, -1.93636e-007, 1.10747, 2.5, 59.15)" opacity="1">
</g>
<g id="PathID_143" transform="matrix(0.651327, 0, -1.93636e-007, 1.10747, 15.7, 59.15)" opacity="1">
<path style="fill:#738D1D;fill-opacity:1" d="M29.2 -11.55L11.95 -11.55Q9.6 -4.65 19 -4.65Q22.4 -4.65 26.6 -5.4L25.05 -0.8Q20.9 0 15.95 0Q2.45 0 7.1 -13.65Q11.55 -26.75 24.35 -26.75Q36.7 -26.75 29.2 -11.55M13.55 -16.35L25.75 -16.35Q28 -22.1 22.05 -22.1Q15.9 -22.1 13.55 -16.35" />
</g>
<g id="PathID_144" transform="matrix(0.651327, 0, -1.93636e-007, 1.10747, 15.7, 59.15)" opacity="1">
</g>
<g id="PathID_145" transform="matrix(0.651327, 0, -1.93636e-007, 1.10747, 36.65, 59.15)" opacity="1">
<path style="fill:#738D1D;fill-opacity:1" d="M21.5 -36.05L9.2 0L3.65 0L15.95 -36.05L21.5 -36.05" />
</g>
<g id="PathID_146" transform="matrix(0.651327, 0, -1.93636e-007, 1.10747, 36.65, 59.15)" opacity="1">
</g>
<g id="PathID_147" transform="matrix(0.651327, 0, -1.93636e-007, 1.10747, 47, 59.15)" opacity="1">
<path style="fill:#738D1D;fill-opacity:1" d="M29.2 -11.55L11.95 -11.55Q9.6 -4.65 19 -4.65Q22.4 -4.65 26.6 -5.4L25.05 -0.8Q20.9 0 15.95 0Q2.45 0 7.1 -13.65Q11.55 -26.75 24.35 -26.75Q36.7 -26.75 29.2 -11.55M13.55 -16.35L25.75 -16.35Q28 -22.1 22.05 -22.1Q15.9 -22.1 13.55 -16.35" />
</g>
<g id="PathID_148" transform="matrix(0.651327, 0, -1.93636e-007, 1.10747, 47, 59.15)" opacity="1">
</g>
<g id="PathID_149" transform="matrix(0.651327, 0, -1.93636e-007, 1.10747, 67.95, 59.15)" opacity="1">
<path style="fill:#738D1D;fill-opacity:1" d="M3.65 0L12.75 -26.75L16.75 -26.75L16.35 -23.45Q21.65 -26.75 26.55 -26.75Q35.95 -26.75 32.55 -16.65L26.85 0L21.3 0L27 -16.7Q28.8 -21.95 23.55 -21.95Q19.9 -21.95 15.7 -19L9.2 0L3.65 0" />
</g>
<g id="PathID_150" transform="matrix(0.651327, 0, -1.93636e-007, 1.10747, 67.95, 59.15)" opacity="1">
</g>
<g id="PathID_151" transform="matrix(0.651327, 0, -1.93636e-007, 1.10747, 90.05, 59.15)" opacity="1">
<path style="fill:#738D1D;fill-opacity:1" d="M5.35 -8.5Q8.2 -16.95 19.15 -16.95Q23.05 -16.95 25.2 -16.45L25.85 -18.35Q27.1 -22.05 20.65 -22.05Q16.8 -22.05 11.6 -20.85L13.15 -25.4Q18.2 -26.75 22.25 -26.75Q34.25 -26.75 31.3 -18L25.15 0L22.1 0L21.05 -1.8Q17.3 0 12.6 0Q2.45 0 5.35 -8.5M17.55 -12.25Q12.15 -12.25 10.9 -8.6Q9.6 -4.65 14.2 -4.65Q18.75 -4.65 21.8 -6.45L23.65 -11.85Q21.5 -12.25 17.55 -12.25" />
</g>
<g id="PathID_152" transform="matrix(0.651327, 0, -1.93636e-007, 1.10747, 90.05, 59.15)" opacity="1">
</g>
<g id="PathID_153" transform="matrix(0.651327, 0, -1.93636e-007, 1.10747, 121.45, 59.15)" opacity="1">
<path style="fill:#738D1D;fill-opacity:1" d="M3.65 0L15.95 -36.05L31.4 -36.05Q41.9 -36.05 38.85 -27.15Q36.45 -19.95 25.55 -16.75L31.9 0L25.15 0L19.2 -16.1L20.4 -19.65Q31 -21.25 32.95 -26.95Q34.45 -31.3 29.35 -31.3L19.85 -31.3L9.2 0L3.65 0" />
</g>
<g id="PathID_154" transform="matrix(0.651327, 0, -1.93636e-007, 1.10747, 121.45, 59.15)" opacity="1">
</g>
<g id="PathID_155" transform="matrix(0.651327, 0, -1.93636e-007, 1.10747, 144.85, 59.15)" opacity="1">
<path style="fill:#738D1D;fill-opacity:1" d="M16.8 -4.65Q24 -4.65 27 -13.45Q29.9 -22.05 22.7 -22.05Q15.5 -22.05 12.6 -13.45Q9.6 -4.65 16.8 -4.65M7 -13.35Q11.55 -26.75 24.3 -26.75Q37.05 -26.75 32.55 -13.35Q28 0 15.2 0Q2.5 0 7 -13.35" />
</g>
<g id="PathID_156" transform="matrix(0.651327, 0, -1.93636e-007, 1.10747, 144.85, 59.15)" opacity="1">
</g>
<g id="PathID_157" transform="matrix(0.651327, 0, -1.93636e-007, 1.10747, 166.85, 59.15)" opacity="1">
<path style="fill:#738D1D;fill-opacity:1" d="M12.05 -26.75L31.95 -26.75L30.45 -22.4L10.45 -4.4L23.85 -4.4L22.35 0L2.45 0L3.85 -4.1L24.05 -22.05L10.45 -22.05L12.05 -26.75" />
</g>
<g id="PathID_158" transform="matrix(0.651327, 0, -1.93636e-007, 1.10747, 166.85, 59.15)" opacity="1">
</g>
<g id="PathID_159" transform="matrix(0.651327, 0, -1.93636e-007, 1.10747, 185.4, 59.15)" opacity="1">
<path style="fill:#738D1D;fill-opacity:1" d="M29.2 -11.55L11.95 -11.55Q9.6 -4.65 19 -4.65Q22.4 -4.65 26.6 -5.4L25.05 -0.8Q20.9 0 15.95 0Q2.45 0 7.1 -13.65Q11.55 -26.75 24.35 -26.75Q36.7 -26.75 29.2 -11.55M13.55 -16.35L25.75 -16.35Q28 -22.1 22.05 -22.1Q15.9 -22.1 13.55 -16.35" />
</g>
<g id="PathID_160" transform="matrix(0.651327, 0, -1.93636e-007, 1.10747, 185.4, 59.15)" opacity="1">
</g>
<g id="PathID_161" transform="matrix(0.651327, 0, -1.93636e-007, 1.10747, 206.35, 59.15)" opacity="1">
<path style="fill:#738D1D;fill-opacity:1" d="M3.65 0L12.75 -26.75L16.75 -26.75L16.35 -23.45Q21.65 -26.75 26.55 -26.75Q35.95 -26.75 32.55 -16.65L26.85 0L21.3 0L27 -16.7Q28.8 -21.95 23.55 -21.95Q19.9 -21.95 15.7 -19L9.2 0L3.65 0" />
</g>
<g id="PathID_162" transform="matrix(0.651327, 0, -1.93636e-007, 1.10747, 206.35, 59.15)" opacity="1">
</g>
<g id="PathID_163" transform="matrix(0.651327, 0, -1.93636e-007, 1.10747, 228.45, 59.15)" opacity="1">
<path style="fill:#738D1D;fill-opacity:1" d="M4.1 -1.35L5.75 -6.15Q10.1 -4.65 14.7 -4.65Q20.35 -4.65 21.4 -7.85Q22.4 -10.8 18.85 -10.8L14.7 -10.8Q6.1 -10.8 8.85 -18.9Q11.55 -26.75 22.75 -26.75Q27.4 -26.75 31.7 -25.4L30.1 -20.6Q25.65 -22.05 21.15 -22.05Q15.25 -22.05 14.2 -18.9Q13.2 -15.95 16.45 -15.95L20.6 -15.95Q29.75 -15.95 26.95 -7.85Q24.3 0 13.1 0Q8.35 0 4.1 -1.35" />
</g>
<g id="PathID_164" transform="matrix(0.651327, 0, -1.93636e-007, 1.10747, 228.45, 59.15)" opacity="1">
</g>
<g id="PathID_165" transform="matrix(0.651327, 0, -1.93636e-007, 1.10747, 248.05, 59.15)" opacity="1">
<path style="fill:#738D1D;fill-opacity:1" d="M14.15 -30.9L17.95 -30.9L17.5 -26.7L23.6 -26.7L22 -22.05L16.75 -22.05L11.85 -7.75Q10.8 -4.65 13.4 -4.65L16.1 -4.65L14.5 0L10.65 0Q3.65 0 6.2 -7.4L14.15 -30.9" />
</g>
<g id="PathID_166" transform="matrix(0.651327, 0, -1.93636e-007, 1.10747, 248.05, 59.15)" opacity="1">
</g>
<g id="PathID_167" transform="matrix(0.651327, 0, -1.93636e-007, 1.10747, 261.05, 59.15)" opacity="1">
<path style="fill:#738D1D;fill-opacity:1" d="M29.2 -11.55L11.95 -11.55Q9.6 -4.65 19 -4.65Q22.4 -4.65 26.6 -5.4L25.05 -0.8Q20.9 0 15.95 0Q2.45 0 7.1 -13.65Q11.55 -26.75 24.35 -26.75Q36.7 -26.75 29.2 -11.55M13.55 -16.35L25.75 -16.35Q28 -22.1 22.05 -22.1Q15.9 -22.1 13.55 -16.35" />
</g>
<g id="PathID_168" transform="matrix(0.651327, 0, -1.93636e-007, 1.10747, 261.05, 59.15)" opacity="1">
</g>
<g id="PathID_169" transform="matrix(0.651327, 0, -1.93636e-007, 1.10747, 282, 59.15)" opacity="1">
<path style="fill:#738D1D;fill-opacity:1" d="M21.5 -36.05L19.9 -31.35L14.35 -31.35L15.95 -36.05L21.5 -36.05M18.3 -26.7L9.2 0L3.65 0L12.75 -26.7L18.3 -26.7" />
</g>
<g id="PathID_170" transform="matrix(0.651327, 0, -1.93636e-007, 1.10747, 282, 59.15)" opacity="1">
</g>
<g id="PathID_171" transform="matrix(0.651327, 0, -1.93636e-007, 1.10747, 292.4, 59.15)" opacity="1">
<path style="fill:#738D1D;fill-opacity:1" d="M3.65 0L12.75 -26.75L16.75 -26.75L16.35 -23.45Q21.65 -26.75 26.55 -26.75Q35.95 -26.75 32.55 -16.65L26.85 0L21.3 0L27 -16.7Q28.8 -21.95 23.55 -21.95Q19.9 -21.95 15.7 -19L9.2 0L3.65 0" />
</g>
<g id="PathID_172" transform="matrix(0.651327, 0, -1.93636e-007, 1.10747, 292.4, 59.15)" opacity="1">
</g>
<g id="PathID_173" transform="matrix(0.651327, 0, -1.93636e-007, 1.10747, 314.5, 59.15)" opacity="1">
<path style="fill:#738D1D;fill-opacity:1" d="M5.35 -8.5Q8.2 -16.95 19.15 -16.95Q23.05 -16.95 25.2 -16.45L25.85 -18.35Q27.1 -22.05 20.65 -22.05Q16.8 -22.05 11.6 -20.85L13.15 -25.4Q18.2 -26.75 22.25 -26.75Q34.25 -26.75 31.3 -18L25.15 0L22.1 0L21.05 -1.8Q17.3 0 12.6 0Q2.45 0 5.35 -8.5M17.55 -12.25Q12.15 -12.25 10.9 -8.6Q9.6 -4.65 14.2 -4.65Q18.75 -4.65 21.8 -6.45L23.65 -11.85Q21.5 -12.25 17.55 -12.25" />
</g>
<g id="PathID_174" transform="matrix(0.651327, 0, -1.93636e-007, 1.10747, 314.5, 59.15)" opacity="1">
</g>
</svg>
