<?xml version="1.0" encoding="utf-8"?>
<svg version="1.1" id="Layer_1"
xmlns="http://www.w3.org/2000/svg"
xmlns:xlink="http://www.w3.org/1999/xlink"
width="782px" height="178px"
xml:space="preserve">
<g id="PathID_1" transform="matrix(0.842293, 0, 0, 1.11626, 541.45, 40.8)" opacity="1">
<path style="fill:#738D1D;fill-opacity:1" d="M11.3 -6.05Q13.15 -4.9 16.35 -4.9Q23.85 -4.9 26.95 -14.05Q29.65 -21.95 22.15 -21.95Q18.8 -21.95 16.55 -21.45L11.3 -6.05M12.35 -25.6Q18.35 -26.75 23.85 -26.75Q36.75 -26.75 32.4 -14Q27.65 0 14.7 0Q11.5 0 9.65 -1.2L6.05 9.3L0.5 9.3L12.35 -25.6" />
</g>
<g id="PathID_2" transform="matrix(0.842293, 0, 0, 1.11626, 541.45, 40.8)" opacity="1">
</g>
<g id="PathID_3" transform="matrix(0.842293, 0, 0, 1.11626, 564.85, 40.8)" opacity="1">
<path style="fill:#738D1D;fill-opacity:1" d="M3.65 0L15.95 -36.05L21.5 -36.05L17.35 -23.95Q21.65 -26.7 26.55 -26.7Q35.95 -26.7 32.55 -16.65L26.85 0L21.3 0L27 -16.7Q28.8 -21.95 23.55 -21.95Q19.9 -21.95 15.7 -19L9.2 0L3.65 0" />
</g>
<g id="PathID_4" transform="matrix(0.842293, 0, 0, 1.11626, 564.85, 40.8)" opacity="1">
</g>
<g id="PathID_5" transform="matrix(0.842293, 0, 0, 1.11626, 588.65, 40.8)" opacity="1">
<path style="fill:#738D1D;fill-opacity:1" d="M16.8 -4.65Q24 -4.65 27 -13.45Q29.9 -22.05 22.7 -22.05Q15.5 -22.05 12.6 -13.45Q9.6 -4.65 16.8 -4.65M7 -13.35Q11.55 -26.75 24.3 -26.75Q37.05 -26.75 32.55 -13.35Q28 0 15.2 0Q2.5 0 7 -13.35" />
</g>
<g id="PathID_6" transform="matrix(0.842293, 0, 0, 1.11626, 588.65, 40.8)" opacity="1">
</g>
<g id="PathID_7" transform="matrix(0.842293, 0, 0, 1.11626, 612.3, 40.8)" opacity="1">
<path style="fill:#738D1D;fill-opacity:1" d="M14.15 -30.9L17.95 -30.9L17.5 -26.7L23.6 -26.7L22 -22.05L16.75 -22.05L11.85 -7.75Q10.8 -4.65 13.4 -4.65L16.1 -4.65L14.5 0L10.65 0Q3.65 0 6.2 -7.4L14.15 -30.9" />
</g>
<g id="PathID_8" transform="matrix(0.842293, 0, 0, 1.11626, 612.3, 40.8)" opacity="1">
</g>
<g id="PathID_9" transform="matrix(0.842293, 0, 0, 1.11626, 624.35, 40.8)" opacity="1">
<path style="fill:#738D1D;fill-opacity:1" d="M16.8 -4.65Q24 -4.65 27 -13.45Q29.9 -22.05 22.7 -22.05Q15.5 -22.05 12.6 -13.45Q9.6 -4.65 16.8 -4.65M7 -13.35Q11.55 -26.75 24.3 -26.75Q37.05 -26.75 32.55 -13.35Q28 0 15.2 0Q2.5 0 7 -13.35" />
</g>
<g id="PathID_10" transform="matrix(0.842293, 0, 0, 1.11626, 624.35, 40.8)" opacity="1">
</g>
<g id="PathID_11" transform="matrix(0.842293, 0, 0, 1.11626, 648, 40.8)" opacity="1">
<path style="fill:#738D1D;fill-opacity:1" d="M28.2 -21.45Q26.4 -21.95 23.1 -21.95Q15.4 -21.95 12.55 -13.55Q9.6 -4.9 16.85 -4.9Q20.25 -4.9 22.95 -6.05L28.2 -21.45M26.6 -0.5Q23.25 9.3 10.9 9.3Q6.05 9.3 2.45 7.95L3.95 3.4Q7.85 4.65 12.55 4.65Q19.3 4.65 21.05 -0.5L21.3 -1.2Q18.6 0 15.15 0Q2.45 0 7.05 -13.5Q11.55 -26.75 24.9 -26.75Q30.15 -26.75 35.15 -25.6L26.6 -0.5" />
</g>
<g id="PathID_12" transform="matrix(0.842293, 0, 0, 1.11626, 648, 40.8)" opacity="1">
</g>
<g id="PathID_13" transform="matrix(0.842293, 0, 0, 1.11626, 671.4, 40.8)" opacity="1">
<path style="fill:#738D1D;fill-opacity:1" d="M3.65 0L12.75 -26.75L16.75 -26.75L16.3 -23.45Q20.3 -26.75 25.8 -26.75L24.15 -21.95Q19.3 -21.95 15.7 -19L9.2 0L3.65 0" />
</g>
<g id="PathID_14" transform="matrix(0.842293, 0, 0, 1.11626, 671.4, 40.8)" opacity="1">
</g>
<g id="PathID_15" transform="matrix(0.842293, 0, 0, 1.11626, 684, 40.8)" opacity="1">
<path style="fill:#738D1D;fill-opacity:1" d="M5.35 -8.5Q8.2 -16.95 19.15 -16.95Q23.05 -16.95 25.2 -16.45L25.85 -18.35Q27.1 -22.05 20.65 -22.05Q16.8 -22.05 11.6 -20.85L13.15 -25.4Q18.2 -26.75 22.25 -26.75Q34.25 -26.75 31.3 -18L25.15 0L22.1 0L21.05 -1.8Q17.3 0 12.6 0Q2.45 0 5.35 -8.5M17.55 -12.25Q12.15 -12.25 10.9 -8.6Q9.6 -4.65 14.2 -4.65Q18.75 -4.65 21.8 -6.45L23.65 -11.85Q21.5 -12.25 17.55 -12.25" />
</g>
<g id="PathID_16" transform="matrix(0.842293, 0, 0, 1.11626, 684, 40.8)" opacity="1">
</g>
<g id="PathID_17" transform="matrix(0.842293, 0, 0, 1.11626, 706.35, 40.8)" opacity="1">
<path style="fill:#738D1D;fill-opacity:1" d="M11.3 -6.05Q13.15 -4.9 16.35 -4.9Q23.85 -4.9 26.95 -14.05Q29.65 -21.95 22.15 -21.95Q18.8 -21.95 16.55 -21.45L11.3 -6.05M12.35 -25.6Q18.35 -26.75 23.85 -26.75Q36.75 -26.75 32.4 -14Q27.65 0 14.7 0Q11.5 0 9.65 -1.2L6.05 9.3L0.5 9.3L12.35 -25.6" />
</g>
<g id="PathID_18" transform="matrix(0.842293, 0, 0, 1.11626, 706.35, 40.8)" opacity="1">
</g>
<g id="PathID_19" transform="matrix(0.842293, 0, 0, 1.11626, 729.75, 40.8)" opacity="1">
<path style="fill:#738D1D;fill-opacity:1" d="M3.65 0L15.95 -36.05L21.5 -36.05L17.35 -23.95Q21.65 -26.7 26.55 -26.7Q35.95 -26.7 32.55 -16.65L26.85 0L21.3 0L27 -16.7Q28.8 -21.95 23.55 -21.95Q19.9 -21.95 15.7 -19L9.2 0L3.65 0" />
</g>
<g id="PathID_20" transform="matrix(0.842293, 0, 0, 1.11626, 729.75, 40.8)" opacity="1">
</g>
<g id="PathID_21" transform="matrix(0.842293, 0, 0, 1.11626, 753.55, 40.8)" opacity="1">
<path style="fill:#738D1D;fill-opacity:1" d="M9.7 -26.75L15.5 -26.75L15.6 -6.65L29.6 -26.75L35.25 -26.75L14.6 0.75Q9.9 7.65 2.95 9.5L2.3 5.55Q7.4 3.5 10.6 -0.35L9.7 -26.75" />
</g>
<g id="PathID_22" transform="matrix(0.842293, 0, 0, 1.11626, 753.55, 40.8)" opacity="1">
</g>
<g id="PathID_23" transform="matrix(0.921399, 0.388619, -0.388619, 0.921399, 377.6, -29.35)" opacity="1">
<linearGradient
id="LinearGradID_1" gradientUnits="userSpaceOnUse" gradientTransform="matrix(-0.0878057, 0.0878057, -0.0878057, -0.0878057, 101.65, 86.85)" spreadMethod ="pad" x1="-819.2" y1="0" x2="819.2" y2="0" >
<stop  offset="0" style="stop-color:#A85295;stop-opacity:0" />
<stop  offset="1" style="stop-color:#6C1659;stop-opacity:1" />
</linearGradient>
<path style="fill:url(#LinearGradID_1) " d="M181 29.7L143.85 29.75Q136.35 29.7 133.2 27.1Q130.35 24.6 130.2 18.4L130 15.05Q130 13.05 128.45 11.65Q126.95 10.2 124.85 10.2L87.9 10.2Q85.6 10.2 84.1 11.65Q82.8 13.3 82.8 15.45L82.45 17.85Q82.4 24.25 78.1 27.1Q74.85 29 68.4 29.7L35.65 29.7Q30.85 29.7 27.1 33.1Q23.7 36.55 23.7 41.65L23.7 54.9Q27.6 51.45 33.75 47.6Q41.85 43.25 50.55 40.75Q58.45 38.8 67.5 38.8L80.05 39.8Q90.45 34.85 102.1 34.85Q114.95 34.85 126.3 40.55Q137.1 46.15 144.3 55.95Q144.6 52.15 147.4 49.55Q150.3 46.85 154.2 46.85Q158.55 46.85 161.5 49.95Q164.4 52.7 164.4 56.95Q164.4 60.1 162.25 63L193.05 63L193.05 41.65Q193.05 36.55 189.6 33.1Q186.05 29.7 181 29.7M196.9 25.8Q203.4 32.6 203.4 41.65L203.4 122.05Q203.4 131.3 196.9 137.65Q190.45 144.25 181 144.25L123.4 144.25Q120.9 148 117.75 151.45Q110.1 159.95 99.55 165.45Q84.6 173.7 67.5 173.7Q39.45 173.7 19.65 153.95L17.35 151.45Q-0.05 132.5 -0.05 106.15Q-0.05 83.8 13.65 65.65L13.65 41.65Q13.65 32.6 20.15 25.8Q26.5 19.35 35.65 19.35L67.9 19.35Q72.45 19 72.45 15.05Q73.05 0 87.9 0L124.85 0Q131.35 0 135.75 3.5Q140.05 7.55 140.05 14.8L140.95 17.7Q141.7 19.35 143.85 19.35L181 19.35Q190.45 19.35 196.9 25.8M114.2 19.35Q115.45 20.65 115.45 22.9L115.45 23.5Q115.45 25.8 114.2 27.1Q112.5 28.55 110.15 28.55L97.6 28.55Q95.4 28.55 93.95 27.1Q92.5 25.8 92.5 23.5L92.5 22.9Q92.5 20.65 93.95 19.35Q95.4 17.85 97.6 17.85L110.15 17.85Q112.5 17.85 114.2 19.35M97.05 45.6Q114.3 53.75 124.6 69.85Q135.25 86.35 135.25 106.15Q135.25 110.05 134.7 113.65Q144.3 102 144.3 87.3Q144.3 69.85 131.95 57.55Q119.5 45.1 102.1 45.1L97.05 45.6M158.1 56.95Q158.1 55.25 157.1 54.25Q155.85 53.05 154.2 53.05Q152.55 53.05 151.55 54.25Q150.6 55.25 150.6 56.95Q150.6 58.45 151.55 59.85Q152.55 60.6 154.2 60.6Q155.85 60.6 157.1 59.85Q158.1 58.45 158.1 56.95M63.85 67.35Q81.15 67.35 93.15 79.35Q105.3 91.25 105.3 108.35Q105.3 125.5 93.15 137.5Q81.15 149.6 63.85 149.6Q46.9 149.6 34.9 137.5Q22.85 125.5 22.85 108.35Q22.85 91.25 34.9 79.35Q46.9 67.35 63.85 67.35M29.35 68.35Q13.75 83.9 13.75 106.15Q13.75 128.5 29.35 144.4Q33.6 148.45 38.3 151.45Q51 159.95 67.5 159.95Q84 159.95 97.05 151.45Q101.7 148.45 105.75 144.4Q121.45 128.5 121.45 106.15Q121.45 83.9 105.75 68.35Q89.85 52.45 67.5 52.45Q45.15 52.45 29.35 68.35M98.85 114.65L99.3 108.75Q99.3 94.15 88.6 83.35Q78.25 73 63.6 73Q48.7 73 38.3 83.35Q27.9 94.15 27.9 108.75Q27.9 110.95 28.6 115.85Q32.35 139 63.55 144.9Q94.15 136.4 98.95 115.2L98.85 114.65" />
</g>
<g id="PathID_24" transform="matrix(0.921399, 0.388619, -0.388619, 0.921399, 377.6, -29.35)" opacity="1">
<path style="fill:none;stroke-width:1.3;stroke-linecap:round;stroke-linejoin:round;stroke-miterlimit:3;stroke:#000000;stroke-opacity:1" d="M180.95 29.65L143.8 29.7Q136.3 29.65 133.15 27.05Q130.3 24.55 130.15 18.35L129.95 14.95Q129.95 12.95 128.4 11.6Q126.9 10.1 124.8 10.15L87.85 10.15Q85.6 10.15 84.05 11.6Q82.75 13.2 82.75 15.4L82.4 17.75Q82.35 24.2 78.05 27.05Q74.8 28.95 68.35 29.6L35.65 29.6Q30.8 29.65 27.05 33Q23.65 36.45 23.65 41.55L23.65 54.8Q27.55 51.35 33.7 47.55Q41.85 43.2 50.5 40.65Q58.4 38.75 67.45 38.7L80 39.75Q90.4 34.8 102.05 34.75Q114.9 34.75 126.25 40.45Q137.05 46.1 144.25 55.85Q144.55 52.05 147.35 49.45Q150.25 46.8 154.15 46.75Q158.5 46.75 161.45 49.85Q164.35 52.6 164.35 56.9Q164.35 60.05 162.25 62.95L193 62.95L193 41.55Q193 36.5 189.55 33Q186 29.65 180.95 29.65z" />
<path style="fill:none;stroke-width:1.3;stroke-linecap:round;stroke-linejoin:round;stroke-miterlimit:3;stroke:#000000;stroke-opacity:1" d="M196.85 25.7Q203.35 32.55 203.35 41.6L203.35 122Q203.35 131.25 196.85 137.55Q190.4 144.2 180.95 144.2L123.35 144.2Q120.85 147.95 117.7 151.4Q110.05 159.9 99.5 165.35Q84.55 173.65 67.45 173.65Q39.4 173.65 19.6 153.85L17.3 151.35Q-0.05 132.45 -0.05 106.05Q-0.05 83.7 13.6 65.55L13.6 41.6Q13.6 32.5 20.1 25.75Q26.45 19.35 35.6 19.25L67.85 19.3Q72.4 18.95 72.4 14.95Q73.05 0 87.85 0L124.8 0Q131.3 -0.05 135.7 3.4Q140 7.45 140 14.75L140.9 17.6Q141.65 19.25 143.8 19.25L181 19.25Q190.4 19.25 196.85 25.7z" />
<path style="fill:none;stroke-width:1.3;stroke-linecap:round;stroke-linejoin:round;stroke-miterlimit:3;stroke:#000000;stroke-opacity:1" d="M114.2 19.3Q115.4 20.55 115.4 22.85L115.4 23.45Q115.4 25.7 114.15 27.05Q112.45 28.45 110.1 28.5L97.55 28.45Q95.35 28.45 93.9 27Q92.5 25.7 92.45 23.45L92.45 22.8Q92.5 20.55 93.9 19.25Q95.35 17.8 97.55 17.8L110.15 17.8Q112.45 17.8 114.2 19.3z" />
<path style="fill:none;stroke-width:1.3;stroke-linecap:round;stroke-linejoin:round;stroke-miterlimit:3;stroke:#000000;stroke-opacity:1" d="M97.05 45.5Q114.25 53.65 124.55 69.75Q135.2 86.25 135.2 106.1Q135.25 110 134.65 113.6Q144.25 101.95 144.25 87.25Q144.25 69.75 131.9 57.5Q119.45 45 102.05 45.05L97.05 45.5z" />
<path style="fill:none;stroke-width:1.3;stroke-linecap:round;stroke-linejoin:round;stroke-miterlimit:3;stroke:#000000;stroke-opacity:1" d="M158.05 56.9Q158.05 55.15 157.05 54.15Q155.8 52.95 154.15 53Q152.5 53 151.5 54.15Q150.55 55.15 150.55 56.85Q150.55 58.4 151.5 59.75Q152.5 60.5 154.15 60.55Q155.8 60.55 157.05 59.75Q158.05 58.35 158.05 56.9z" />
<path style="fill:none;stroke-width:1.3;stroke-linecap:round;stroke-linejoin:round;stroke-miterlimit:3;stroke:#000000;stroke-opacity:1" d="M63.8 67.25Q81.1 67.25 93.1 79.3Q105.25 91.15 105.25 108.3Q105.3 125.45 93.1 137.4Q81.1 149.55 63.8 149.55Q46.85 149.55 34.85 137.45Q22.8 125.45 22.8 108.3Q22.8 91.2 34.85 79.25Q46.85 67.3 63.8 67.25z" />
<path style="fill:none;stroke-width:1.3;stroke-linecap:round;stroke-linejoin:round;stroke-miterlimit:3;stroke:#000000;stroke-opacity:1" d="M29.3 68.25Q13.7 83.8 13.7 106.05Q13.7 128.4 29.3 144.35Q33.55 148.35 38.25 151.35Q50.95 159.85 67.45 159.9Q83.95 159.9 97 151.4Q101.65 148.4 105.7 144.3Q121.4 128.4 121.45 106.1Q121.4 83.85 105.7 68.3Q89.8 52.35 67.5 52.4Q45.1 52.35 29.3 68.25z" />
<path style="fill:none;stroke-width:1.3;stroke-linecap:round;stroke-linejoin:round;stroke-miterlimit:3;stroke:#000000;stroke-opacity:1" d="M98.8 114.6L99.25 108.65Q99.25 94.05 88.55 83.3Q78.2 72.95 63.55 72.95Q48.65 72.9 38.25 83.3Q27.85 94.05 27.85 108.65Q27.85 110.9 28.55 115.8Q32.3 138.9 63.5 144.85Q94.1 136.35 98.9 115.1L98.8 114.6z" />
</g>
<g id="PathID_25" transform="matrix(0.651327, 0, -1.93636e-007, 1.10747, 1.4, 43.05)" opacity="1">
<path style="fill:#738D1D;fill-opacity:1" d="M25.8 -36.05L17.1 -10.6Q13.5 0 0.6 0L2.2 -4.65Q9.55 -4.65 11.55 -10.6L20.2 -36.05L25.8 -36.05" />
</g>
<g id="PathID_26" transform="matrix(0.651327, 0, -1.93636e-007, 1.10747, 1.4, 43.05)" opacity="1">
</g>
<g id="PathID_27" transform="matrix(0.651327, 0, -1.93636e-007, 1.10747, 14.6, 43.05)" opacity="1">
<path style="fill:#738D1D;fill-opacity:1" d="M29.2 -11.55L11.95 -11.55Q9.6 -4.65 19 -4.65Q22.4 -4.65 26.6 -5.4L25.05 -0.8Q20.9 0 15.95 0Q2.45 0 7.1 -13.65Q11.55 -26.75 24.35 -26.75Q36.7 -26.75 29.2 -11.55M13.55 -16.35L25.75 -16.35Q28 -22.1 22.05 -22.1Q15.9 -22.1 13.55 -16.35" />
</g>
<g id="PathID_28" transform="matrix(0.651327, 0, -1.93636e-007, 1.10747, 14.6, 43.05)" opacity="1">
</g>
<g id="PathID_29" transform="matrix(0.651327, 0, -1.93636e-007, 1.10747, 35.55, 43.05)" opacity="1">
<path style="fill:#738D1D;fill-opacity:1" d="M21.5 -36.05L9.2 0L3.65 0L15.95 -36.05L21.5 -36.05" />
</g>
<g id="PathID_30" transform="matrix(0.651327, 0, -1.93636e-007, 1.10747, 35.55, 43.05)" opacity="1">
</g>
<g id="PathID_31" transform="matrix(0.651327, 0, -1.93636e-007, 1.10747, 45.9, 43.05)" opacity="1">
<path style="fill:#738D1D;fill-opacity:1" d="M29.2 -11.55L11.95 -11.55Q9.6 -4.65 19 -4.65Q22.4 -4.65 26.6 -5.4L25.05 -0.8Q20.9 0 15.95 0Q2.45 0 7.1 -13.65Q11.55 -26.75 24.35 -26.75Q36.7 -26.75 29.2 -11.55M13.55 -16.35L25.75 -16.35Q28 -22.1 22.05 -22.1Q15.9 -22.1 13.55 -16.35" />
</g>
<g id="PathID_32" transform="matrix(0.651327, 0, -1.93636e-007, 1.10747, 45.9, 43.05)" opacity="1">
</g>
<g id="PathID_33" transform="matrix(0.651327, 0, -1.93636e-007, 1.10747, 66.85, 43.05)" opacity="1">
<path style="fill:#738D1D;fill-opacity:1" d="M3.65 0L12.75 -26.75L16.75 -26.75L16.35 -23.45Q21.65 -26.75 26.55 -26.75Q35.95 -26.75 32.55 -16.65L26.85 0L21.3 0L27 -16.7Q28.8 -21.95 23.55 -21.95Q19.9 -21.95 15.7 -19L9.2 0L3.65 0" />
</g>
<g id="PathID_34" transform="matrix(0.651327, 0, -1.93636e-007, 1.10747, 66.85, 43.05)" opacity="1">
</g>
<g id="PathID_35" transform="matrix(0.651327, 0, -1.93636e-007, 1.10747, 88.95, 43.05)" opacity="1">
<path style="fill:#738D1D;fill-opacity:1" d="M5.35 -8.5Q8.2 -16.95 19.15 -16.95Q23.05 -16.95 25.2 -16.45L25.85 -18.35Q27.1 -22.05 20.65 -22.05Q16.8 -22.05 11.6 -20.85L13.15 -25.4Q18.2 -26.75 22.25 -26.75Q34.25 -26.75 31.3 -18L25.15 0L22.1 0L21.05 -1.8Q17.3 0 12.6 0Q2.45 0 5.35 -8.5M17.55 -12.25Q12.15 -12.25 10.9 -8.6Q9.6 -4.65 14.2 -4.65Q18.75 -4.65 21.8 -6.45L23.65 -11.85Q21.5 -12.25 17.55 -12.25" />
</g>
<g id="PathID_36" transform="matrix(0.651327, 0, -1.93636e-007, 1.10747, 88.95, 43.05)" opacity="1">
</g>
<g id="PathID_37" transform="matrix(0.651327, 0, -1.93636e-007, 1.10747, 120.35, 43.05)" opacity="1">
<path style="fill:#738D1D;fill-opacity:1" d="M3.65 0L15.95 -36.05L31.4 -36.05Q41.9 -36.05 38.85 -27.15Q36.45 -19.95 25.55 -16.75L31.9 0L25.15 0L19.2 -16.1L20.4 -19.65Q31 -21.25 32.95 -26.95Q34.45 -31.3 29.35 -31.3L19.85 -31.3L9.2 0L3.65 0" />
</g>
<g id="PathID_38" transform="matrix(0.651327, 0, -1.93636e-007, 1.10747, 120.35, 43.05)" opacity="1">
</g>
<g id="PathID_39" transform="matrix(0.651327, 0, -1.93636e-007, 1.10747, 143.75, 43.05)" opacity="1">
<path style="fill:#738D1D;fill-opacity:1" d="M16.8 -4.65Q24 -4.65 27 -13.45Q29.9 -22.05 22.7 -22.05Q15.5 -22.05 12.6 -13.45Q9.6 -4.65 16.8 -4.65M7 -13.35Q11.55 -26.75 24.3 -26.75Q37.05 -26.75 32.55 -13.35Q28 0 15.2 0Q2.5 0 7 -13.35" />
</g>
<g id="PathID_40" transform="matrix(0.651327, 0, -1.93636e-007, 1.10747, 143.75, 43.05)" opacity="1">
</g>
<g id="PathID_41" transform="matrix(0.651327, 0, -1.93636e-007, 1.10747, 165.75, 43.05)" opacity="1">
<path style="fill:#738D1D;fill-opacity:1" d="M12.05 -26.75L31.95 -26.75L30.45 -22.4L10.45 -4.4L23.85 -4.4L22.35 0L2.45 0L3.85 -4.1L24.05 -22.05L10.45 -22.05L12.05 -26.75" />
</g>
<g id="PathID_42" transform="matrix(0.651327, 0, -1.93636e-007, 1.10747, 165.75, 43.05)" opacity="1">
</g>
<g id="PathID_43" transform="matrix(0.651327, 0, -1.93636e-007, 1.10747, 184.3, 43.05)" opacity="1">
<path style="fill:#738D1D;fill-opacity:1" d="M29.2 -11.55L11.95 -11.55Q9.6 -4.65 19 -4.65Q22.4 -4.65 26.6 -5.4L25.05 -0.8Q20.9 0 15.95 0Q2.45 0 7.1 -13.65Q11.55 -26.75 24.35 -26.75Q36.7 -26.75 29.2 -11.55M13.55 -16.35L25.75 -16.35Q28 -22.1 22.05 -22.1Q15.9 -22.1 13.55 -16.35" />
</g>
<g id="PathID_44" transform="matrix(0.651327, 0, -1.93636e-007, 1.10747, 184.3, 43.05)" opacity="1">
</g>
<g id="PathID_45" transform="matrix(0.651327, 0, -1.93636e-007, 1.10747, 205.25, 43.05)" opacity="1">
<path style="fill:#738D1D;fill-opacity:1" d="M3.65 0L12.75 -26.75L16.75 -26.75L16.35 -23.45Q21.65 -26.75 26.55 -26.75Q35.95 -26.75 32.55 -16.65L26.85 0L21.3 0L27 -16.7Q28.8 -21.95 23.55 -21.95Q19.9 -21.95 15.7 -19L9.2 0L3.65 0" />
</g>
<g id="PathID_46" transform="matrix(0.651327, 0, -1.93636e-007, 1.10747, 205.25, 43.05)" opacity="1">
</g>
<g id="PathID_47" transform="matrix(0.651327, 0, -1.93636e-007, 1.10747, 227.35, 43.05)" opacity="1">
<path style="fill:#738D1D;fill-opacity:1" d="M4.1 -1.35L5.75 -6.15Q10.1 -4.65 14.7 -4.65Q20.35 -4.65 21.4 -7.85Q22.4 -10.8 18.85 -10.8L14.7 -10.8Q6.1 -10.8 8.85 -18.9Q11.55 -26.75 22.75 -26.75Q27.4 -26.75 31.7 -25.4L30.1 -20.6Q25.65 -22.05 21.15 -22.05Q15.25 -22.05 14.2 -18.9Q13.2 -15.95 16.45 -15.95L20.6 -15.95Q29.75 -15.95 26.95 -7.85Q24.3 0 13.1 0Q8.35 0 4.1 -1.35" />
</g>
<g id="PathID_48" transform="matrix(0.651327, 0, -1.93636e-007, 1.10747, 227.35, 43.05)" opacity="1">
</g>
<g id="PathID_49" transform="matrix(0.651327, 0, -1.93636e-007, 1.10747, 246.95, 43.05)" opacity="1">
<path style="fill:#738D1D;fill-opacity:1" d="M14.15 -30.9L17.95 -30.9L17.5 -26.7L23.6 -26.7L22 -22.05L16.75 -22.05L11.85 -7.75Q10.8 -4.65 13.4 -4.65L16.1 -4.65L14.5 0L10.65 0Q3.65 0 6.2 -7.4L14.15 -30.9" />
</g>
<g id="PathID_50" transform="matrix(0.651327, 0, -1.93636e-007, 1.10747, 246.95, 43.05)" opacity="1">
</g>
<g id="PathID_51" transform="matrix(0.651327, 0, -1.93636e-007, 1.10747, 259.95, 43.05)" opacity="1">
<path style="fill:#738D1D;fill-opacity:1" d="M29.2 -11.55L11.95 -11.55Q9.6 -4.65 19 -4.65Q22.4 -4.65 26.6 -5.4L25.05 -0.8Q20.9 0 15.95 0Q2.45 0 7.1 -13.65Q11.55 -26.75 24.35 -26.75Q36.7 -26.75 29.2 -11.55M13.55 -16.35L25.75 -16.35Q28 -22.1 22.05 -22.1Q15.9 -22.1 13.55 -16.35" />
</g>
<g id="PathID_52" transform="matrix(0.651327, 0, -1.93636e-007, 1.10747, 259.95, 43.05)" opacity="1">
</g>
<g id="PathID_53" transform="matrix(0.651327, 0, -1.93636e-007, 1.10747, 280.9, 43.05)" opacity="1">
<path style="fill:#738D1D;fill-opacity:1" d="M21.5 -36.05L19.9 -31.35L14.35 -31.35L15.95 -36.05L21.5 -36.05M18.3 -26.7L9.2 0L3.65 0L12.75 -26.7L18.3 -26.7" />
</g>
<g id="PathID_54" transform="matrix(0.651327, 0, -1.93636e-007, 1.10747, 280.9, 43.05)" opacity="1">
</g>
<g id="PathID_55" transform="matrix(0.651327, 0, -1.93636e-007, 1.10747, 291.3, 43.05)" opacity="1">
<path style="fill:#738D1D;fill-opacity:1" d="M3.65 0L12.75 -26.75L16.75 -26.75L16.35 -23.45Q21.65 -26.75 26.55 -26.75Q35.95 -26.75 32.55 -16.65L26.85 0L21.3 0L27 -16.7Q28.8 -21.95 23.55 -21.95Q19.9 -21.95 15.7 -19L9.2 0L3.65 0" />
</g>
<g id="PathID_56" transform="matrix(0.651327, 0, -1.93636e-007, 1.10747, 291.3, 43.05)" opacity="1">
</g>
<g id="PathID_57" transform="matrix(0.651327, 0, -1.93636e-007, 1.10747, 313.4, 43.05)" opacity="1">
<path style="fill:#738D1D;fill-opacity:1" d="M5.35 -8.5Q8.2 -16.95 19.15 -16.95Q23.05 -16.95 25.2 -16.45L25.85 -18.35Q27.1 -22.05 20.65 -22.05Q16.8 -22.05 11.6 -20.85L13.15 -25.4Q18.2 -26.75 22.25 -26.75Q34.25 -26.75 31.3 -18L25.15 0L22.1 0L21.05 -1.8Q17.3 0 12.6 0Q2.45 0 5.35 -8.5M17.55 -12.25Q12.15 -12.25 10.9 -8.6Q9.6 -4.65 14.2 -4.65Q18.75 -4.65 21.8 -6.45L23.65 -11.85Q21.5 -12.25 17.55 -12.25" />
</g>
<g id="PathID_58" transform="matrix(0.651327, 0, -1.93636e-007, 1.10747, 313.4, 43.05)" opacity="1">
</g>
</svg>
